<mxfile host="app.diagrams.net" modified="2024-05-05T08:05:47.827Z" agent="Mozilla/5.0 (Windows NT 10.0; Win64; x64) AppleWebKit/537.36 (KHTML, like Gecko) Chrome/121.0.0.0 Safari/537.36 OPR/107.0.0.0" version="24.3.1" etag="dkgt2RYhP5RfLYc48VgF" type="github">
  <diagram name="Trang-1" id="r6eOZ69rc-4Km0xSXZgc">
    <mxGraphModel>
      <root>
        <mxCell id="0" />
        <mxCell id="1" parent="0" />
      </root>
    </mxGraphModel>
  </diagram>
</mxfile>
